<svg width="16" height="16" viewBox="0 0 16 16" fill="none" xmlns="http://www.w3.org/2000/svg">
<path fill-rule="evenodd" clip-rule="evenodd" d="M6.66675 13.3333C6.66675 14.4378 5.77132 15.3333 4.66675 15.3333C3.56218 15.3333 2.66675 14.4378 2.66675 13.3333C2.66675 12.2287 3.56218 11.3333 4.66675 11.3333C5.77132 11.3333 6.66675 12.2287 6.66675 13.3333ZM5.33341 13.3333C5.33341 13.7014 5.03494 13.9999 4.66675 13.9999C4.29856 13.9999 4.00008 13.7014 4.00008 13.3333C4.00008 12.9651 4.29856 12.6666 4.66675 12.6666C5.03494 12.6666 5.33341 12.9651 5.33341 13.3333Z" fill="white"/>
<path fill-rule="evenodd" clip-rule="evenodd" d="M13.3334 13.3333C13.3334 14.4378 12.438 15.3333 11.3334 15.3333C10.2288 15.3333 9.33341 14.4378 9.33341 13.3333C9.33341 12.2287 10.2288 11.3333 11.3334 11.3333C12.438 11.3333 13.3334 12.2287 13.3334 13.3333ZM12.0001 13.3333C12.0001 13.7014 11.7016 13.9999 11.3334 13.9999C10.9652 13.9999 10.6667 13.7014 10.6667 13.3333C10.6667 12.9651 10.9652 12.6666 11.3334 12.6666C11.7016 12.6666 12.0001 12.9651 12.0001 13.3333Z" fill="white"/>
<path fill-rule="evenodd" clip-rule="evenodd" d="M1.40378 1.70192C1.56844 1.3726 1.96889 1.23912 2.29821 1.40378L2.96721 1.73828C3.58672 2.04804 4.00186 2.65628 4.06457 3.34607L4.09647 3.69691C4.11207 3.8686 4.25603 4.00006 4.42843 4.00006H13.2237C14.3874 4.00006 15.1929 5.16235 14.7843 6.25194L13.6154 9.36898C13.3227 10.1496 12.5764 10.6667 11.7427 10.6667H5.21768C4.18328 10.6667 3.31955 9.87796 3.2259 8.8478L2.73671 3.46678C2.71581 3.23685 2.57743 3.0341 2.37093 2.93085L1.70192 2.59635C1.3726 2.43169 1.23912 2.03124 1.40378 1.70192ZM4.61025 5.3334C4.41424 5.3334 4.26054 5.5017 4.27828 5.69691L4.55376 8.72709C4.58497 9.07047 4.87288 9.3334 5.21768 9.3334H11.7427C12.0206 9.3334 12.2694 9.16102 12.3669 8.90081L13.5358 5.78377C13.6176 5.56586 13.4565 5.3334 13.2237 5.3334H4.61025Z" fill="white"/>
</svg>
