<svg width="16" height="16" viewBox="0 0 16 16" fill="none" xmlns="http://www.w3.org/2000/svg">
<path fill-rule="evenodd" clip-rule="evenodd" d="M6.66675 13.3335C6.66675 14.4381 5.77132 15.3335 4.66675 15.3335C3.56218 15.3335 2.66675 14.4381 2.66675 13.3335C2.66675 12.2289 3.56218 11.3335 4.66675 11.3335C5.77132 11.3335 6.66675 12.2289 6.66675 13.3335ZM5.33341 13.3335C5.33341 13.7017 5.03494 14.0002 4.66675 14.0002C4.29856 14.0002 4.00008 13.7017 4.00008 13.3335C4.00008 12.9653 4.29856 12.6668 4.66675 12.6668C5.03494 12.6668 5.33341 12.9653 5.33341 13.3335Z" fill="white"/>
<path fill-rule="evenodd" clip-rule="evenodd" d="M13.3334 13.3335C13.3334 14.4381 12.438 15.3335 11.3334 15.3335C10.2288 15.3335 9.33341 14.4381 9.33341 13.3335C9.33341 12.2289 10.2288 11.3335 11.3334 11.3335C12.438 11.3335 13.3334 12.2289 13.3334 13.3335ZM12.0001 13.3335C12.0001 13.7017 11.7016 14.0002 11.3334 14.0002C10.9652 14.0002 10.6667 13.7017 10.6667 13.3335C10.6667 12.9653 10.9652 12.6668 11.3334 12.6668C11.7016 12.6668 12.0001 12.9653 12.0001 13.3335Z" fill="white"/>
<path fill-rule="evenodd" clip-rule="evenodd" d="M1.40378 1.70168C1.56844 1.37236 1.96889 1.23888 2.29821 1.40354L2.96721 1.73804C3.58672 2.04779 4.00186 2.65603 4.06457 3.34582L4.09647 3.69667C4.11207 3.86836 4.25603 3.99982 4.42843 3.99982H13.2237C14.3874 3.99982 15.1929 5.16211 14.7843 6.25169L13.6154 9.36873C13.3227 10.1493 12.5764 10.6665 11.7427 10.6665H5.21768C4.18328 10.6665 3.31955 9.87772 3.2259 8.84756L2.73671 3.46654C2.71581 3.23661 2.57743 3.03386 2.37093 2.93061L1.70192 2.59611C1.3726 2.43145 1.23912 2.031 1.40378 1.70168ZM4.61025 5.33315C4.41424 5.33315 4.26054 5.50146 4.27828 5.69667L4.55376 8.72684C4.58497 9.07023 4.87288 9.33315 5.21768 9.33315H11.7427C12.0206 9.33315 12.2694 9.16077 12.3669 8.90057L13.5358 5.78353C13.6176 5.56561 13.4565 5.33315 13.2237 5.33315H4.61025Z" fill="white"/>
</svg>
